:SAMPLES-PER-SECOND 30
:FULLY-SPECIFIED
:DEGREES
231
root  41.1358 33.7205 -64.2208 1.16084 -29.6467 0.441467
RightUpLeg  -0.461941 -16.552 -3.72541
RightLeg  9.7096 -7.41894 -0.778218
RightFoot  1.64833 -0.00136765 -0.121404
RightToes  -28.0935 -0.131272 -0.238237
Spine  3.85055 1.03293 -1.46307
Spine1  6.67256 2.72675 -3.72684
HEad  11.4551 1.6547 10.9148
LeftShoulder1  0 -2.42657e-020 -4.95415e-022
LeftArm  -7.08062 3.71658 -69.8299
LeftForeArm  106.214 -79.5013 -73.7073
LeftHand  -1.4087 -6.21989 25.1566
RightShoulder  0 2.42657e-020 1.07489e-018
RightArm  -6.5843 11.4173 73.835
RightForeArm  72.4687 67.2009 24.8622
RightHand  -6.44922 24.7284 -28.4644
LeftUpLeg  -6.76996 -9.55896 -0.734665
LeftLeg  14.5826 -5.04162 -0.971281
LeftFoot  0.32346 0.00238865 0.0290592
LeftToes  -9.52112 8.72033e-007 1.17809e-007
232
root  41.1642 33.7072 -64.1946 1.21067 -29.6237 0.544355
RightUpLeg  -0.708083 -16.5628 -3.85715
RightLeg  10.0347 -7.42405 -0.821264
RightFoot  1.47802 -0.000850679 -0.102042
RightToes  -28.1541 -0.131902 -0.238917
Spine  3.87106 1.06502 -1.51944
Spine1  6.73914 2.7995 -3.86006
HEad  11.7647 2.07413 10.7756
LeftShoulder1  0 -2.42657e-020 -4.95415e-022
LeftArm  -6.35953 6.83565 -70.4085
LeftForeArm  102.8 -79.3066 -70.3555
LeftHand  -1.3941 -6.26285 24.7323
RightShoulder  0 2.42657e-020 1.07489e-018
RightArm  -5.06505 8.49242 73.6723
RightForeArm  69.1441 65.6704 23.0064
RightHand  -6.1949 25.0462 -27.0203
LeftUpLeg  -6.87719 -9.49824 -0.867286
LeftLeg  14.6193 -5.12212 -0.990125
LeftFoot  0.254313 0.0032366 0.0285288
LeftToes  -9.24316 8.72033e-007 1.17809e-007
233
root  41.1898 33.6936 -64.1703 1.28358 -29.5932 0.59879
RightUpLeg  -0.869568 -16.4311 -3.91715
RightLeg  10.1957 -7.57793 -0.859693
RightFoot  1.38551 0.00073644 -0.0985764
RightToes  -28.3135 -0.132504 -0.23958
Spine  3.93248 1.0758 -1.52422
Spine1  6.9021 2.8214 -3.88788
HEad  11.8906 2.56067 10.5657
LeftShoulder1  0 -2.42657e-020 -4.95415e-022
LeftArm  -5.68081 9.56712 -71.0841
LeftForeArm  98.5987 -78.9512 -65.5691
LeftHand  -1.41499 -6.41955 24.4923
RightShoulder  0 2.42657e-020 1.07489e-018
RightArm  -3.50897 6.02029 73.3052
RightForeArm  65.9416 63.94 21.1799
RightHand  -5.80717 25.1941 -25.211
LeftUpLeg  -7.00262 -9.48347 -0.955584
LeftLeg  14.6959 -5.17404 -1.00729
LeftFoot  0.161233 0.00382426 0.0323665
LeftToes  -9.17151 8.72033e-007 1.17809e-007
234
root  41.2214 33.6774 -64.147 1.32857 -29.5948 0.64894
RightUpLeg  -1.08036 -16.1345 -3.96393
RightLeg  10.481 -7.84327 -0.929075
RightFoot  1.21717 0.00190831 -0.0879353
RightToes  -28.3113 -0.133081 -0.240226
Spine  4.00982 1.03207 -1.49704
Spine1  7.09731 2.72096 -3.83622
HEad  12.0562 3.17176 10.1914
LeftShoulder1  0 -2.42657e-020 -4.95415e-022
LeftArm  -5.03725 12.0369 -71.6154
LeftForeArm  94.2776 -78.5187 -61.0472
LeftHand  -1.41999 -6.63543 23.7874
RightShoulder  0 2.42657e-020 1.07489e-018
RightArm  -2.04949 3.99795 72.9751
RightForeArm  63.9997 61.5544 19.0232
RightHand  -5.65266 25.4043 -24.3443
LeftUpLeg  -7.19269 -9.55706 -1.05213
LeftLeg  14.9491 -5.09956 -1.01626
LeftFoot  0.00727632 0.00412927 0.0416644
LeftToes  -9.1444 8.72033e-007 1.17809e-007
235
root  41.2455 33.6595 -64.128 1.40644 -29.6311 0.671605
RightUpLeg  -1.38538 -16.1225 -4.00698
RightLeg  10.9034 -7.80806 -0.983203
RightFoot  0.970798 0.00197436 -0.0593894
RightToes  -28.3444 -0.133636 -0.240854
Spine  4.08012 1.02726 -1.44388
Spine1  7.28709 2.69152 -3.72307
HEad  12.2646 3.66178 10.1059
LeftShoulder1  0 -2.42657e-020 -4.95415e-022
LeftArm  -3.97439 13.8577 -72.053
LeftForeArm  89.0686 -77.8644 -55.7121
LeftHand  -1.40016 -6.7408 23.0965
RightShoulder  0 2.42657e-020 1.07489e-018
RightArm  -2.08366 1.69128 73.1715
RightForeArm  62.6141 59.2407 17.2478
RightHand  -5.36354 25.7787 -22.7712
LeftUpLeg  -7.41652 -9.39233 -1.09065
LeftLeg  15.2465 -5.23673 -1.07174
LeftFoot  -0.244715 0.00405407 0.0586833
LeftToes  -9.03333 8.72033e-007 1.17809e-007
236
root  41.2733 33.639 -64.1297 1.80352 -29.7546 0.59538
RightUpLeg  -2.10811 -15.9062 -3.83637
RightLeg  11.4858 -7.9179 -1.07859
RightFoot  0.679582 0.00200794 -0.0295995
RightToes  -28.4418 -0.134169 -0.241465
Spine  4.05591 1.05334 -1.34413
Spine1  7.3075 2.70168 -3.48502
HEad  12.5233 3.98619 10.1873
LeftShoulder1  0 -2.42657e-020 -4.95415e-022
LeftArm  -2.4764 15.2472 -72.4815
LeftForeArm  84.4866 -77.1462 -51.1092
LeftHand  -1.37101 -6.80042 22.4242
RightShoulder  0 2.42657e-020 1.07489e-018
RightArm  -3.13496 -0.810279 73.612
RightForeArm  60.3059 56.9194 15.712
RightHand  -5.01186 25.622 -21.4228
LeftUpLeg  -7.95634 -9.30405 -0.971616
LeftLeg  15.5989 -5.27643 -1.11367
LeftFoot  -0.594518 0.00362976 0.0836852
LeftToes  -9.24727 8.72033e-007 1.17809e-007
237
root  41.2769 33.6193 -64.1223 2.01003 -30.0149 0.441871
RightUpLeg  -2.79674 -15.529 -3.64028
RightLeg  12.4909 -7.99496 -1.23188
RightFoot  0.259971 0.000810949 0.0200439
RightToes  -28.6517 -0.134684 -0.242061
Spine  4.11822 1.02122 -1.20649
Spine1  7.49398 2.58597 -3.15984
HEad  12.9237 4.34589 10.3109
LeftShoulder1  0 -2.42657e-020 -4.95415e-022
LeftArm  -0.824145 16.1957 -72.8777
LeftForeArm  79.8268 -76.3542 -47.002
LeftHand  -1.34209 -6.83987 21.8294
RightShoulder  0 2.42657e-020 1.07489e-018
RightArm  -4.83863 -2.943 74.5493
RightForeArm  57.3985 53.691 13.8835
RightHand  -4.83503 25.4045 -20.8526
LeftUpLeg  -8.21053 -9.18442 -0.790547
LeftLeg  15.9581 -5.20785 -1.1334
LeftFoot  -0.998822 0.00319359 0.112173
LeftToes  -9.8707 8.72033e-007 1.17809e-007
238
root  41.2459 33.5976 -64.1555 2.38356 -30.6273 0.283533
RightUpLeg  -4.08081 -14.6283 -3.24519
RightLeg  14.1239 -8.31721 -1.52433
RightFoot  -0.418785 -0.000978084 0.110101
RightToes  -28.5334 -0.135182 -0.24264
Spine  4.10835 1.00442 -1.06794
Spine1  7.54016 2.49478 -2.82018
HEad  13.6371 4.4656 10.5442
LeftShoulder1  0 -2.42657e-020 -4.95415e-022
LeftArm  0.843984 16.848 -73.3471
LeftForeArm  75.4636 -75.2934 -42.5491
LeftHand  -1.33682 -6.98863 21.2834
RightShoulder  0 2.42657e-020 1.07489e-018
RightArm  -6.88876 -4.99716 75.7567
RightForeArm  55.1531 50.1487 12.1872
RightHand  -4.62235 25.1441 -20.1507
LeftUpLeg  -8.59004 -8.53176 -0.472244
LeftLeg  16.2855 -5.24623 -1.17312
LeftFoot  -1.54411 0.00208996 0.155081
LeftToes  -10.9255 8.72033e-007 1.17809e-007
239
root  41.1878 33.5689 -64.1876 2.67669 -31.5202 0.329458
RightUpLeg  -5.6934 -13.6584 -3.01529
RightLeg  16.3333 -8.22196 -1.83648
RightFoot  -1.56843 -0.00143552 0.272797
RightToes  -27.497 -0.135666 -0.243204
Spine  4.11923 0.954787 -0.95806
Spine1  7.63063 2.3313 -2.51662
HEad  14.8359 3.87159 10.8919
LeftShoulder1  0 -2.42657e-020 -4.95415e-022
LeftArm  2.36797 17.1634 -74.0529
LeftForeArm  71.1517 -73.8069 -37.6503
LeftHand  -1.34281 -7.25578 20.5926
RightShoulder  0 2.42657e-020 1.07489e-018
RightArm  -8.65147 -6.55365 77.0422
RightForeArm  53.6325 46.0575 10.5257
RightHand  -4.53215 24.8321 -20.0139
LeftUpLeg  -8.83474 -7.77231 -0.302745
LeftLeg  16.4517 -4.97644 -1.12823
LeftFoot  -2.05869 0.00220096 0.1859
LeftToes  -12.8645 8.72033e-007 1.17809e-007
240
root  41.0683 33.531 -64.1791 2.65856 -32.3125 0.525455
RightUpLeg  -6.9197 -12.988 -3.01179
RightLeg  18.538 -8.05467 -2.12724
RightFoot  -2.5627 0.000787359 0.412862
RightToes  -27.432 -0.136137 -0.243754
Spine  4.18014 0.685658 -0.938175
Spine1  7.8017 1.77198 -2.45005
HEad  16.9495 2.36253 11.6693
LeftShoulder1  0 -2.42657e-020 -4.95415e-022
LeftArm  3.58197 17.5468 -74.5921
LeftForeArm  67.2695 -72.1139 -33.3215
LeftHand  -1.33492 -7.58167 19.5916
RightShoulder  0 2.42657e-020 1.07489e-018
RightArm  -9.85524 -7.55616 78.6663
RightForeArm  52.0868 40.6154 8.67357
RightHand  -4.38172 24.3203 -19.7697
LeftUpLeg  -8.71008 -7.49808 -0.297636
LeftLeg  16.5211 -4.41041 -1.00604
LeftFoot  -2.54667 0.00440638 0.19823
LeftToes  -13.6497 8.72033e-007 1.17809e-007
241
root  40.8943 33.4511 -64.1878 2.63831 -33.5066 0.885609
RightUpLeg  -8.52761 -11.8265 -3.02261
RightLeg  21.2252 -7.84663 -2.47125
RightFoot  -3.8357 0.00731921 0.596237
RightToes  -27.2952 -0.136598 -0.244288
Spine  4.26724 0.498903 -0.983247
Spine1  7.9565 1.48038 -2.66135
HEad  19.5426 -0.223151 12.4606
LeftShoulder1  0 -2.42657e-020 -4.95415e-022
LeftArm  4.28715 17.9377 -75.1508
LeftForeArm  63.9722 -70.3566 -29.7631
LeftHand  -1.28259 -7.94459 17.9589
RightShoulder  0 2.42657e-020 1.07489e-018
RightArm  -11.2662 -7.98375 80.5453
RightForeArm  50.3807 33.9307 6.78488
RightHand  -4.07616 24.1215 -18.5464
LeftUpLeg  -8.80959 -6.54778 -0.370151
LeftLeg  17.0084 -4.0648 -0.963964
LeftFoot  -3.32415 0.00678839 0.233937
LeftToes  -14.004 8.72033e-007 1.17809e-007
242
root  40.6548 33.3443 -64.1773 2.59888 -34.7526 1.18844
RightUpLeg  -10.0698 -10.77 -2.95231
RightLeg  24.0364 -7.55209 -2.79317
RightFoot  -5.1515 0.0177585 0.772412
RightToes  -27.4195 -0.137052 -0.244809
Spine  4.43009 0.249298 -0.971093
Spine1  8.20175 1.05463 -2.81949
HEad  22.3203 -3.52101 13.0713
LeftShoulder1  0 -2.42657e-020 -4.95415e-022
LeftArm  4.60635 18.2276 -75.8569
LeftForeArm  60.905 -68.3933 -26.56
LeftHand  -1.19431 -8.44652 15.7107
RightShoulder  0 2.42657e-020 1.07489e-018
RightArm  -13.9513 -8.80019 82.5234
RightForeArm  49.7979 29.4243 5.67837
RightHand  -3.50938 24.0168 -16.0249
LeftUpLeg  -9.08292 -5.51555 -0.238398
LeftLeg  18.1744 -3.71871 -0.962581
LeftFoot  -4.51185 0.0111065 0.281925
LeftToes  -16.0205 8.72033e-007 1.17809e-007
